{"title":"Sherlock Holmes in The Other Side (1992) Richard Grant.mp4","uid":16036206,"size":1023093342,"categoryP":"video","categoryS":"movies","magnet":"?xt=urn:btih:bfb8db3c972b37787530b65c199883da1ab62d3b&amp;dn=Sherlock+Holmes+in+The+Other+Side+%281992%29+Richard+Grant.mp4&amp;tr=udp%3A%2F%2Ftracker.leechers-paradise.org%3A6969&amp;tr=udp%3A%2F%2Fzer0day.ch%3A1337&amp;tr=udp%3A%2F%2Fopen.demonii.com%3A1337&amp;tr=udp%3A%2F%2Ftracker.coppersurfer.tk%3A6969&amp;tr=udp%3A%2F%2Fexodus.desync.com%3A6969","seeders":6,"leechers":5,"uploader":"cjbbaugh","files":1,"time":1476485751,"description":"The Other Side is an episode of the TV series Encounters written by David Ashton and directed by Gareth Davies produced by BBC aired on BBC2 on 29 August 1992, starring Frank Finlay as Sir Arthur Conan Doyle and Richard E. Grant as Sherlock Holmes. 50 minutes. \r\n\r\nGeneral\r\nComplete name : Sherlock Holmes in The Other Side (1992) Richard Grant.mp4\r\nFormat : MPEG-4\r\nFormat profile : Base Media / Version 2\r\nCodec ID : mp42\r\nFile size : 976 MiB\r\nDuration : 50mn 1s\r\nOverall bit rate mode : Variable\r\nOverall bit rate : 2 727 Kbps\r\nContentType : Unknown Type\r\nEncoded date : UTC 2016-10-13 23:42:58\r\nTagged date : UTC 2016-10-13 23:42:58\r\n\r\nVideo\r\nID : 1\r\nFormat : AVC\r\nFormat/Info : Advanced Video Codec\r\nFormat profile :   \r\nFormat settings, CABAC : Yes\r\nFormat settings, ReFrames : 1 frame\r\nMuxing mode : Container   \r\nCodec ID : avc1\r\nCodec ID/Info : Advanced Video Coding\r\nDuration : 50mn 1s\r\nBit rate mode : Variable\r\nBit rate : 2 572 Kbps\r\nMaximum bit rate : 3 750 Kbps\r\nWidth : 720 pixels\r\nHeight : 480 pixels\r\nDisplay aspect ratio : 3:2\r\nFrame rate mode : Constant\r\nFrame rate : 30.000 fps\r\nStandard : NTSC\r\nColor space : YUV\r\nChroma subsampling : 4:2:0\r\nBit depth : 8 bits\r\nScan type : Progressive\r\nBits/(Pixel*Frame) : 0.248\r\nStream size : 920 MiB (94%)\r\nLanguage : English\r\n\r\nAudio\r\nID : 2\r\nFormat : AAC\r\nFormat/Info : Advanced Audio Codec\r\nFormat profile : LC\r\nCodec ID : 40\r\nDuration : 50mn 1s\r\nBit rate mode : Constant\r\nBit rate : 148 Kbps\r\nChannel(s) : 2 channels\r\nChannel positions : Front: L R\r\nSampling rate : 48.0 KHz\r\nCompression mode : Lossy\r\nStream size : 52.9 MiB (5%)\r\nLanguage : English","torrent":{"xt":"urn:btih:bfb8db3c972b37787530b65c199883da1ab62d3b","amp;dn":"Sherlock+Holmes+in+The+Other+Side+%281992%29+Richard+Grant.mp4","amp;tr":["udp%3A%2F%2Ftracker.leechers-paradise.org%3A6969","udp%3A%2F%2Fzer0day.ch%3A1337","udp%3A%2F%2Fopen.demonii.com%3A1337","udp%3A%2F%2Ftracker.coppersurfer.tk%3A6969","udp%3A%2F%2Fexodus.desync.com%3A6969"],"infoHash":"bfb8db3c972b37787530b65c199883da1ab62d3b","infoHashBuffer":{"type":"Buffer","data":[191,184,219,60,151,43,55,120,117,48,182,92,25,152,131,218,26,182,45,59]},"announce":[],"urlList":[]}}